<svg xmlns="http://www.w3.org/2000/svg" viewBox="0 0 64 64">
  <defs><clipPath id="c"><circle cx="32" cy="32" r="30"></circle></clipPath></defs>
  <g clip-path="url(#c)">
    <rect width="64" height="64" fill="#b22234"></rect>
    <g fill="#fff">
      <rect y="6" width="64" height="6"></rect>
      <rect y="18" width="64" height="6"></rect>
      <rect y="30" width="64" height="6"></rect>
      <rect y="42" width="64" height="6"></rect>
      <rect y="54" width="64" height="6"></rect>
    </g>
    <rect width="30" height="34" fill="#3c3b6e"></rect>
    <g fill="#fff" transform="translate(3,4)">
      <g>
        <circle cx="3" cy="3" r="1.2"></circle><circle cx="9" cy="3" r="1.2"></circle><circle cx="15" cy="3" r="1.2"></circle><circle cx="21" cy="3" r="1.2"></circle>
      </g>
      <g transform="translate(0,6)">
        <circle cx="6" cy="3" r="1.2"></circle><circle cx="12" cy="3" r="1.2"></circle><circle cx="18" cy="3" r="1.2"></circle><circle cx="24" cy="3" r="1.2"></circle>
      </g>
      <g transform="translate(0,12)">
        <circle cx="3" cy="3" r="1.2"></circle><circle cx="9" cy="3" r="1.2"></circle><circle cx="15" cy="3" r="1.2"></circle><circle cx="21" cy="3" r="1.2"></circle>
      </g>
      <g transform="translate(0,18)">
        <circle cx="6" cy="3" r="1.2"></circle><circle cx="12" cy="3" r="1.2"></circle><circle cx="18" cy="3" r="1.2"></circle><circle cx="24" cy="3" r="1.2"></circle>
      </g>
      <g transform="translate(0,24)">
        <circle cx="3" cy="3" r="1.2"></circle><circle cx="9" cy="3" r="1.2"></circle><circle cx="15" cy="3" r="1.2"></circle><circle cx="21" cy="3" r="1.2"></circle>
      </g>
    </g>
  </g>
  <circle cx="32" cy="32" r="30" fill="none" stroke="rgba(255,255,255,0.25)" stroke-width="2"></circle>
</svg>
